<svg id="Isolation_Mode" data-name="Isolation Mode" xmlns="http://www.w3.org/2000/svg" xmlns:xlink="http://www.w3.org/1999/xlink" viewBox="0 0 605.15 240.46"><defs><style>.cls-1{fill:none;}.cls-2{clip-path:url(#clip-path);}.cls-3{fill:#2b3990;}.cls-4,.cls-5{fill:#50b848;}.cls-4{fill-rule:evenodd;}</style><clipPath id="clip-path" transform="translate(-17.01 -3.85)"><rect class="cls-1" x="17.01" y="3.85" width="605.15" height="240.46"/></clipPath></defs><title>logo</title><g class="cls-2"><path class="cls-3" d="M506.12,3.85H371.63v6.24a35.36,35.36,0,0,0-20.11-6.24H248.13v6.49A35.45,35.45,0,0,0,228,4.1H161.4a35.49,35.49,0,0,0-19.52,5.84V3.85H52.65A35.67,35.67,0,0,0,17,39.48V178.05H85.76V131h40v11.38a35.68,35.68,0,0,0,35.64,35.64H228a35.45,35.45,0,0,0,20.11-6.24v6.49H316.4V158.23l16.8,48.6h73.39l-30-85.09a33.86,33.86,0,0,0,10.57-24.5V70.68h17.17V178.05h69.75V70.68h16.51V178.05H622.16V3.85Z" transform="translate(-17.01 -3.85)"/><polygon class="cls-4" points="488.51 159.27 488.51 14.93 526.73 14.93 526.73 75.46 552.25 75.46 552.25 14.93 590.22 14.93 590.22 159.27 552.25 159.27 552.25 112.26 526.73 112.26 526.73 159.27 488.51 159.27"/><polygon class="cls-4" points="402.25 159.27 402.25 159.27 402.25 51.9 369.55 51.9 369.55 14.93 474.18 14.93 474.18 51.9 442.14 51.9 442.14 159.27 402.25 159.27"/><path class="cls-5" d="M358.52,115.37a18.85,18.85,0,0,0,13.71-18.13V39.49a20.71,20.71,0,0,0-20.71-20.71H263.06V163.37h38.41V116.1h16.16l26.2,75.8H385.5Zm-24.7-34H301.47V55.75h32.35Z" transform="translate(-17.01 -3.85)"/><path class="cls-4" d="M127,55.75v-37H52.65A20.71,20.71,0,0,0,31.94,39.49V163.12H70.83v-47h42.55V79.31H70.83V55.75Z" transform="translate(-17.01 -3.85)"/><path class="cls-5" d="M228,19H161.4a20.71,20.71,0,0,0-20.71,20.71V142.41a20.71,20.71,0,0,0,20.71,20.71H228a20.71,20.71,0,0,0,20.71-20.71V39.74A20.71,20.71,0,0,0,228,19M210.66,126.65H179.28V55.75h31.38Z" transform="translate(-17.01 -3.85)"/><path class="cls-3" d="M438.13,241q-3.47,3.28-9.44,3.28a16.29,16.29,0,0,1-12.9-6l4.44-6.61a15.93,15.93,0,0,0,4,3.09A8.18,8.18,0,0,0,428,235.9a3.68,3.68,0,0,0,2.83-1.11,4.46,4.46,0,0,0,1-3.17V214.81H419.17v-8h22.42v25q0,5.92-3.46,9.2" transform="translate(-17.01 -3.85)"/><path class="cls-3" d="M474.31,243.89l-2.53-6.56h-16l-2.59,6.56h-9.94l15.91-37.06h9.94l15.54,37.06Zm-15.65-14h10.26l-5.07-13.22Z" transform="translate(-17.01 -3.85)"/><path class="cls-3" d="M509.8,243.89l-5.39-10.26h-7.19v10.26h-9.68V206.83H504.2q7.35,0,11.39,3.41t4,9.59a14.6,14.6,0,0,1-1.69,7.22,11.68,11.68,0,0,1-4.91,4.73l7.71,12.11Zm-12.58-18h7a6.49,6.49,0,0,0,4.57-1.48,5.49,5.49,0,0,0,1.62-4.28,5.28,5.28,0,0,0-1.62-4.15,6.58,6.58,0,0,0-4.57-1.45h-7Z" transform="translate(-17.01 -3.85)"/><path class="cls-3" d="M550.64,209.15a17.1,17.1,0,0,1,7,6.53,19.95,19.95,0,0,1,0,19.32,16.9,16.9,0,0,1-7.08,6.56,22.86,22.86,0,0,1-10.5,2.33H524.39V206.83h16a22,22,0,0,1,10.28,2.32m-5,25.59A9,9,0,0,0,549,231a12.25,12.25,0,0,0,1.22-5.55,11.67,11.67,0,0,0-1.3-5.61,9.43,9.43,0,0,0-3.57-3.78,9.93,9.93,0,0,0-5.18-1.35h-6.08v21.36h6.56a9.37,9.37,0,0,0,5-1.32" transform="translate(-17.01 -3.85)"/><rect class="cls-3" x="548.08" y="202.98" width="9.68" height="37.06"/><polygon class="cls-3" points="562.69 202.98 573.21 202.98 583.95 224.66 594.63 202.98 605.14 202.98 605.14 240.04 596.58 240.04 596.53 216.56 587.07 236.34 580.83 236.34 571.31 216.56 571.31 240.04 562.69 240.04 562.69 202.98"/></g></svg>